<mxfile host="app.diagrams.net" agent="Mozilla/5.0 (Windows NT 10.0; Win64; x64) AppleWebKit/537.36 (KHTML, like Gecko) Chrome/131.0.0.0 Safari/537.36" version="25.0.3">
  <diagram id="HL5VH0HqwzAkJYBgSVj2" name="Page-1">
    <mxGraphModel dx="1034813" dy="749247" grid="1" gridSize="10" guides="1" tooltips="1" connect="1" arrows="1" fold="1" page="0" pageScale="1" pageWidth="850" pageHeight="1100" math="0" shadow="0">
      <root>
        <mxCell id="0" />
        <mxCell id="1" parent="0" />
        <mxCell id="2" value="&lt;p style=&quot;margin:0px;margin-top:4px;text-align:center;&quot;&gt;&lt;b&gt;Main&lt;/b&gt;&lt;/p&gt;&lt;hr size=&quot;1&quot; style=&quot;border-style:solid;&quot;/&gt;&lt;p style=&quot;margin:0px;margin-left:4px;&quot;&gt;+ static void main(String[] args)&lt;/p&gt;" style="verticalAlign=top;align=left;overflow=fill;html=1;whiteSpace=wrap;hachureGap=4;fontFamily=Architects Daughter;fontSource=https%3A%2F%2Ffonts.googleapis.com%2Fcss%3Ffamily%3DArchitects%2BDaughter;shadow=0;" parent="1" vertex="1">
          <mxGeometry x="-1029600" y="-746020" width="160" height="90" as="geometry" />
        </mxCell>
        <mxCell id="3" value="cards" style="swimlane;whiteSpace=wrap;html=1;group=1;fillColor=#E8E8E8;strokeColor=#AAAAAA;shadow=0;" parent="1" vertex="1">
          <mxGeometry x="-1029250" y="-744880" width="580" height="600" as="geometry" />
        </mxCell>
        <mxCell id="4" value="&lt;p style=&quot;margin:0px;margin-top:4px;text-align:center;&quot;&gt;&lt;b&gt;Card&lt;/b&gt;&lt;/p&gt;&lt;hr size=&quot;1&quot; style=&quot;border-style:solid;&quot;/&gt;&lt;p style=&quot;margin:0px;margin-left:4px;&quot;&gt;- CardRank rank&lt;br/&gt;&#xa;- CardSuit suit&lt;/p&gt;&lt;hr size=&quot;1&quot; style=&quot;border-style:solid;&quot;/&gt;&lt;p style=&quot;margin:0px;margin-left:4px;&quot;&gt;+ Card(CardRank rank, CardSuit suit)&lt;br/&gt;&#xa;+ String getCard()&lt;br/&gt;&#xa;+ CardRank getRank()&lt;br/&gt;&#xa;+ CardSuit getSuit()&lt;/p&gt;" style="verticalAlign=top;align=left;overflow=fill;html=1;whiteSpace=wrap;hachureGap=4;fontFamily=Architects Daughter;fontSource=https%3A%2F%2Ffonts.googleapis.com%2Fcss%3Ffamily%3DArchitects%2BDaughter;shadow=0;" parent="3" vertex="1">
          <mxGeometry x="340" y="60" width="220" height="200" as="geometry" />
        </mxCell>
        <mxCell id="hOFVRN5MPvwN64yr18WN-57" style="edgeStyle=orthogonalEdgeStyle;rounded=0;sketch=1;hachureGap=4;jiggle=2;curveFitting=1;orthogonalLoop=1;jettySize=auto;html=1;fontFamily=Architects Daughter;fontSource=https%3A%2F%2Ffonts.googleapis.com%2Fcss%3Ffamily%3DArchitects%2BDaughter;endArrow=none;endFill=0;exitX=0.997;exitY=0.141;exitDx=0;exitDy=0;entryX=1;entryY=0.75;entryDx=0;entryDy=0;exitPerimeter=0;" edge="1" parent="3" source="6" target="4">
          <mxGeometry relative="1" as="geometry">
            <Array as="points">
              <mxPoint x="559" y="450" />
              <mxPoint x="570" y="450" />
              <mxPoint x="570" y="210" />
            </Array>
          </mxGeometry>
        </mxCell>
        <mxCell id="6" value="&lt;p style=&quot;margin:0px;margin-top:4px;text-align:center;&quot;&gt;&lt;i&gt;&amp;lt;&amp;gt;&lt;/i&gt;&lt;br&gt;&lt;b&gt;CardRank&lt;/b&gt;&lt;/p&gt;&lt;hr size=&quot;1&quot; style=&quot;border-style:solid;&quot;&gt;&lt;p style=&quot;margin:0px;margin-left:4px;&quot;&gt;// Enum values&lt;/p&gt;&lt;div&gt;&lt;br&gt;&lt;/div&gt;&lt;p style=&quot;margin:0px;margin-left:4px;&quot;&gt;+ CardRank(Object value)&lt;br&gt;&lt;br&gt;+ Object getValue()&lt;/p&gt;" style="verticalAlign=top;align=left;overflow=fill;html=1;whiteSpace=wrap;hachureGap=4;fontFamily=Architects Daughter;fontSource=https%3A%2F%2Ffonts.googleapis.com%2Fcss%3Ffamily%3DArchitects%2BDaughter;shadow=0;" parent="3" vertex="1">
          <mxGeometry x="340" y="450" width="220" height="130" as="geometry" />
        </mxCell>
        <mxCell id="hOFVRN5MPvwN64yr18WN-56" style="edgeStyle=orthogonalEdgeStyle;rounded=0;sketch=1;hachureGap=4;jiggle=2;curveFitting=1;orthogonalLoop=1;jettySize=auto;html=1;fontFamily=Architects Daughter;fontSource=https%3A%2F%2Ffonts.googleapis.com%2Fcss%3Ffamily%3DArchitects%2BDaughter;endArrow=none;endFill=0;" edge="1" parent="3" source="7" target="4">
          <mxGeometry relative="1" as="geometry" />
        </mxCell>
        <mxCell id="7" value="&lt;p style=&quot;margin:0px;margin-top:4px;text-align:center;&quot;&gt;&lt;i&gt;&amp;lt;&amp;gt;&lt;/i&gt;&lt;br&gt;&lt;b&gt;CardSuit&lt;/b&gt;&lt;/p&gt;&lt;hr size=&quot;1&quot; style=&quot;border-style:solid;&quot;&gt;&lt;p style=&quot;margin:0px;margin-left:4px;&quot;&gt;// Enum values&lt;/p&gt;&lt;div&gt;&lt;br&gt;&lt;/div&gt;&lt;p style=&quot;margin:0px;margin-left:4px;&quot;&gt;+ CardSuit(char symbol)&lt;br&gt;&lt;br&gt;+ char getSymbol()&lt;/p&gt;" style="verticalAlign=top;align=left;overflow=fill;html=1;whiteSpace=wrap;hachureGap=4;fontFamily=Architects Daughter;fontSource=https%3A%2F%2Ffonts.googleapis.com%2Fcss%3Ffamily%3DArchitects%2BDaughter;shadow=0;" parent="3" vertex="1">
          <mxGeometry x="340" y="290" width="220" height="130" as="geometry" />
        </mxCell>
        <mxCell id="5" value="&lt;p style=&quot;margin:0px;margin-top:4px;text-align:center;&quot;&gt;&lt;b&gt;Deck&lt;/b&gt;&lt;/p&gt;&lt;hr size=&quot;1&quot; style=&quot;border-style:solid;&quot;/&gt;&lt;p style=&quot;margin:0px;margin-left:4px;&quot;&gt;- static DeckDataHandler deckDataHandler&lt;br/&gt;&#xa;- static LinkedHashMap&lt;String, Card&gt; deck&lt;/p&gt;&lt;hr size=&quot;1&quot; style=&quot;border-style:solid;&quot;/&gt;&lt;p style=&quot;margin:0px;margin-left:4px;&quot;&gt;+ Deck()&lt;br/&gt;&#xa;+ LinkedHashMap&lt;String, Card&gt; getDeck()&lt;br/&gt;&#xa;- void generateDeck()&lt;br/&gt;&#xa;- void shuffleDeck()&lt;br/&gt;&#xa;+ void clearDeck()&lt;br/&gt;&#xa;+ String drawCard()&lt;/p&gt;" style="verticalAlign=top;align=left;overflow=fill;html=1;whiteSpace=wrap;hachureGap=4;fontFamily=Architects Daughter;fontSource=https%3A%2F%2Ffonts.googleapis.com%2Fcss%3Ffamily%3DArchitects%2BDaughter;shadow=0;" parent="3" vertex="1">
          <mxGeometry x="10" y="60" width="300" height="270" as="geometry" />
        </mxCell>
        <mxCell id="8" style="edgeStyle=orthogonalEdgeStyle;rounded=0;endArrow=none;html=1;shadow=0;exitX=0.994;exitY=0.374;exitDx=0;exitDy=0;exitPerimeter=0;" parent="3" source="5" target="4" edge="1">
          <mxGeometry relative="1" as="geometry">
            <mxPoint x="307" y="159" as="sourcePoint" />
          </mxGeometry>
        </mxCell>
        <mxCell id="11" value="data" style="swimlane;whiteSpace=wrap;html=1;group=1;fillColor=#E8E8E8;strokeColor=#AAAAAA;shadow=0;" parent="1" vertex="1">
          <mxGeometry x="-1030370" y="-745270" width="670" height="610" as="geometry" />
        </mxCell>
        <mxCell id="12" value="&lt;p style=&quot;margin:0px;margin-top:4px;text-align:center;&quot;&gt;&lt;i&gt;&amp;lt;&amp;gt;&lt;/i&gt;&lt;br&gt;&lt;b&gt;DataHandler&lt;/b&gt;&lt;/p&gt;&lt;hr size=&quot;1&quot; style=&quot;border-style:solid;&quot;&gt;&lt;p style=&quot;margin:0px;margin-left:4px;&quot;&gt;- Yaml yaml&lt;br&gt;&lt;/p&gt;&lt;hr size=&quot;1&quot; style=&quot;border-style:solid;&quot;&gt;&lt;p style=&quot;margin:0px;margin-left:4px;&quot;&gt;+ DataHandler()&lt;br&gt;&lt;br&gt;+ Map readData(String file)&lt;br&gt;&lt;br&gt;+ void writeData(String file, Map data)&lt;/p&gt;&lt;div&gt;&lt;br&gt;&lt;/div&gt;&lt;p style=&quot;margin:0px;margin-left:4px;&quot;&gt;+ abstract void updateData(String file, String key, Object value)&lt;/p&gt;" style="verticalAlign=top;align=left;overflow=fill;html=1;whiteSpace=wrap;hachureGap=4;fontFamily=Architects Daughter;fontSource=https%3A%2F%2Ffonts.googleapis.com%2Fcss%3Ffamily%3DArchitects%2BDaughter;shadow=0;" parent="11" vertex="1">
          <mxGeometry x="10" y="60" width="300" height="200" as="geometry" />
        </mxCell>
        <mxCell id="13" value="&lt;p style=&quot;margin:0px;margin-top:4px;text-align:center;&quot;&gt;&lt;b&gt;DeckDataHandler&lt;/b&gt;&lt;/p&gt;&lt;hr size=&quot;1&quot; style=&quot;border-style:solid;&quot;&gt;&lt;p style=&quot;margin:0px;margin-left:4px;&quot;&gt;+ static String deckDataFilePath&lt;br&gt;&lt;/p&gt;&lt;hr size=&quot;1&quot; style=&quot;border-style:solid;&quot;&gt;+ Map readDeck(String file)&lt;br&gt;&lt;br&gt;&lt;p style=&quot;margin:0px;margin-left:4px;&quot;&gt;&lt;span style=&quot;background-color: initial;&quot;&gt;+ void writeDeck(String file, Map deck)&lt;/span&gt;&lt;/p&gt;&lt;p style=&quot;margin:0px;margin-left:4px;&quot;&gt;&lt;br&gt;&lt;/p&gt;&lt;p style=&quot;margin:0px;margin-left:4px;&quot;&gt;+ void updateDeck(String file, String key, Object value)&lt;/p&gt;" style="verticalAlign=top;align=left;overflow=fill;html=1;whiteSpace=wrap;hachureGap=4;fontFamily=Architects Daughter;fontSource=https%3A%2F%2Ffonts.googleapis.com%2Fcss%3Ffamily%3DArchitects%2BDaughter;shadow=0;" parent="11" vertex="1">
          <mxGeometry x="360" y="60" width="300" height="160" as="geometry" />
        </mxCell>
        <mxCell id="14" value="&lt;p style=&quot;margin:0px;margin-top:4px;text-align:center;&quot;&gt;&lt;b&gt;GameDataHandler&lt;/b&gt;&lt;/p&gt;&lt;hr size=&quot;1&quot; style=&quot;border-style:solid;&quot;&gt;&lt;p style=&quot;margin:0px;margin-left:4px;&quot;&gt;+ static String gameDataFilePath&lt;br&gt;&lt;/p&gt;&lt;hr size=&quot;1&quot; style=&quot;border-style:solid;&quot;&gt;+ Map readGameData(String file)&lt;br&gt;&lt;br&gt;+ Map readSettingsData(String file)&lt;br&gt;&lt;br&gt;+ void updateSettingsData(String file, String key, Object value)&lt;br&gt;&lt;br&gt;+ Map readPlayerGameData(String file, Integer playerId)&lt;br&gt;&lt;br&gt;+ void updatePlayerGameData(String file, Integer playerId, String key, Object value)&lt;br&gt;&lt;br&gt;+ void addPlayerGameData(String file, Player player)&lt;br&gt;&lt;br&gt;&lt;p style=&quot;margin:0px;margin-left:4px;&quot;&gt;&lt;span style=&quot;background-color: initial;&quot;&gt;+ void removePlayerGameData(String file, Integer playerId)&lt;/span&gt;&lt;/p&gt;&lt;p style=&quot;margin:0px;margin-left:4px;&quot;&gt;&lt;br&gt;&lt;/p&gt;&lt;p style=&quot;margin:0px;margin-left:4px;&quot;&gt;+ void updateData(String file, String key, Object value)&lt;/p&gt;" style="verticalAlign=top;align=left;overflow=fill;html=1;whiteSpace=wrap;hachureGap=4;fontFamily=Architects Daughter;fontSource=https%3A%2F%2Ffonts.googleapis.com%2Fcss%3Ffamily%3DArchitects%2BDaughter;shadow=0;" parent="11" vertex="1">
          <mxGeometry x="10" y="310" width="650" height="280" as="geometry" />
        </mxCell>
        <mxCell id="J_7VlXqUv86EhzjSv_5q-60" value="Extends" style="endArrow=block;endSize=16;endFill=0;html=1;rounded=0;hachureGap=4;fontFamily=Architects Daughter;fontSource=https%3A%2F%2Ffonts.googleapis.com%2Fcss%3Ffamily%3DArchitects%2BDaughter;exitX=0;exitY=0.5;exitDx=0;exitDy=0;entryX=1.002;entryY=0.395;entryDx=0;entryDy=0;shadow=0;entryPerimeter=0;" parent="11" source="13" target="12" edge="1">
          <mxGeometry width="160" relative="1" as="geometry">
            <mxPoint x="360" y="80" as="sourcePoint" />
            <mxPoint x="520" y="80" as="targetPoint" />
          </mxGeometry>
        </mxCell>
        <mxCell id="J_7VlXqUv86EhzjSv_5q-61" value="Extends" style="endArrow=block;endSize=16;endFill=0;html=1;rounded=0;hachureGap=4;fontFamily=Architects Daughter;fontSource=https%3A%2F%2Ffonts.googleapis.com%2Fcss%3Ffamily%3DArchitects%2BDaughter;exitX=0.32;exitY=0.001;exitDx=0;exitDy=0;entryX=0.75;entryY=1;entryDx=0;entryDy=0;exitPerimeter=0;shadow=0;" parent="11" source="14" target="12" edge="1">
          <mxGeometry width="160" relative="1" as="geometry">
            <mxPoint x="420" y="190" as="sourcePoint" />
            <mxPoint x="360" y="165" as="targetPoint" />
          </mxGeometry>
        </mxCell>
        <mxCell id="17" value="exceptions" style="swimlane;whiteSpace=wrap;html=1;group=1;fillColor=#E8E8E8;strokeColor=#AAAAAA;shadow=0;" parent="1" vertex="1">
          <mxGeometry x="-1030370" y="-745780" width="600" height="300" as="geometry" />
        </mxCell>
        <mxCell id="18" value="&lt;p style=&quot;margin:0px;margin-top:4px;text-align:center;&quot;&gt;&lt;b&gt;InsufficientChipsException&lt;/b&gt;&lt;/p&gt;&lt;hr size=&quot;1&quot; style=&quot;border-style:solid;&quot;/&gt;&lt;p style=&quot;margin:0px;margin-left:4px;&quot;&gt;+ InsufficientChipsException(String message)&lt;/p&gt;" style="verticalAlign=top;align=left;overflow=fill;html=1;whiteSpace=wrap;hachureGap=4;fontFamily=Architects Daughter;fontSource=https%3A%2F%2Ffonts.googleapis.com%2Fcss%3Ffamily%3DArchitects%2BDaughter;shadow=0;" parent="17" vertex="1">
          <mxGeometry x="50" y="170" width="220" height="80" as="geometry" />
        </mxCell>
        <mxCell id="19" value="&lt;p style=&quot;margin:0px;margin-top:4px;text-align:center;&quot;&gt;&lt;b&gt;InvalidPlayerDataException&lt;/b&gt;&lt;/p&gt;&lt;hr size=&quot;1&quot; style=&quot;border-style:solid;&quot;/&gt;&lt;p style=&quot;margin:0px;margin-left:4px;&quot;&gt;+ InvalidPlayerDataException(String message)&lt;/p&gt;" style="verticalAlign=top;align=left;overflow=fill;html=1;whiteSpace=wrap;hachureGap=4;fontFamily=Architects Daughter;fontSource=https%3A%2F%2Ffonts.googleapis.com%2Fcss%3Ffamily%3DArchitects%2BDaughter;shadow=0;" parent="17" vertex="1">
          <mxGeometry x="340" y="170" width="220" height="80" as="geometry" />
        </mxCell>
        <mxCell id="J_7VlXqUv86EhzjSv_5q-48" value="&lt;p style=&quot;margin:0px;margin-top:4px;text-align:center;&quot;&gt;&lt;b&gt;Exception&lt;/b&gt;&lt;/p&gt;&lt;hr size=&quot;1&quot; style=&quot;border-style:solid;&quot;&gt;&lt;p style=&quot;margin:0px;margin-left:4px;&quot;&gt;&lt;br&gt;&lt;/p&gt;" style="verticalAlign=top;align=left;overflow=fill;html=1;whiteSpace=wrap;hachureGap=4;fontFamily=Architects Daughter;fontSource=https%3A%2F%2Ffonts.googleapis.com%2Fcss%3Ffamily%3DArchitects%2BDaughter;shadow=0;" parent="17" vertex="1">
          <mxGeometry x="180" y="50" width="220" height="80" as="geometry" />
        </mxCell>
        <mxCell id="J_7VlXqUv86EhzjSv_5q-50" value="Extends" style="endArrow=block;endSize=16;endFill=0;html=1;rounded=0;hachureGap=4;fontFamily=Architects Daughter;fontSource=https%3A%2F%2Ffonts.googleapis.com%2Fcss%3Ffamily%3DArchitects%2BDaughter;exitX=0.5;exitY=0;exitDx=0;exitDy=0;entryX=0.452;entryY=0.98;entryDx=0;entryDy=0;entryPerimeter=0;shadow=0;" parent="17" source="18" target="J_7VlXqUv86EhzjSv_5q-48" edge="1">
          <mxGeometry width="160" relative="1" as="geometry">
            <mxPoint x="520" y="270" as="sourcePoint" />
            <mxPoint x="680" y="270" as="targetPoint" />
          </mxGeometry>
        </mxCell>
        <mxCell id="J_7VlXqUv86EhzjSv_5q-51" value="Extends" style="endArrow=block;endSize=16;endFill=0;html=1;rounded=0;hachureGap=4;fontFamily=Architects Daughter;fontSource=https%3A%2F%2Ffonts.googleapis.com%2Fcss%3Ffamily%3DArchitects%2BDaughter;exitX=0.5;exitY=0;exitDx=0;exitDy=0;entryX=0.637;entryY=1.045;entryDx=0;entryDy=0;entryPerimeter=0;shadow=0;" parent="17" source="19" target="J_7VlXqUv86EhzjSv_5q-48" edge="1">
          <mxGeometry width="160" relative="1" as="geometry">
            <mxPoint x="170" y="180" as="sourcePoint" />
            <mxPoint x="289" y="138" as="targetPoint" />
          </mxGeometry>
        </mxCell>
        <mxCell id="21" value="game" style="swimlane;whiteSpace=wrap;html=1;group=1;fillColor=#E8E8E8;strokeColor=#AAAAAA;shadow=0;" parent="1" vertex="1">
          <mxGeometry x="-1029680" y="-745880" width="370" height="590" as="geometry" />
        </mxCell>
        <mxCell id="22" value="&lt;p style=&quot;margin:0px;margin-top:4px;text-align:center;&quot;&gt;&lt;b&gt;BlackjackGame&lt;/b&gt;&lt;/p&gt;&lt;hr size=&quot;1&quot; style=&quot;border-style:solid;&quot;/&gt;&lt;p style=&quot;margin:0px;margin-left:4px;&quot;&gt;- static GameDataHandler gameDataHandler&lt;br/&gt;&#xa;- final Map&lt;Integer, Player&gt; players&lt;/p&gt;&lt;hr size=&quot;1&quot; style=&quot;border-style:solid;&quot;/&gt;&lt;p style=&quot;margin:0px;margin-left:4px;&quot;&gt;+ BlackjackGame() throws InvalidPlayerDataException&lt;/p&gt;" style="verticalAlign=top;align=left;overflow=fill;html=1;whiteSpace=wrap;hachureGap=4;fontFamily=Architects Daughter;fontSource=https%3A%2F%2Ffonts.googleapis.com%2Fcss%3Ffamily%3DArchitects%2BDaughter;shadow=0;" parent="21" vertex="1">
          <mxGeometry x="10" y="60" width="300" height="100" as="geometry" />
        </mxCell>
        <mxCell id="23" value="&lt;p style=&quot;margin:0px;margin-top:4px;text-align:center;&quot;&gt;&lt;b&gt;GameEngine&lt;/b&gt;&lt;/p&gt;&lt;hr size=&quot;1&quot; style=&quot;border-style:solid;&quot;/&gt;&lt;p style=&quot;margin:0px;margin-left:4px;&quot;&gt;- static final Scanner scanner&lt;br/&gt;&#xa;- static final GameDataHandler gameDataHandler&lt;/p&gt;&lt;hr size=&quot;1&quot; style=&quot;border-style:solid;&quot;/&gt;&lt;p style=&quot;margin:0px;margin-left:4px;&quot;&gt;+ static void actionLoop(Map&lt;Integer, Player&gt; players)&lt;br/&gt;&#xa;- static boolean actionManager(UserPlayer player, int handIndex)&lt;br/&gt;&#xa;- static Map&lt;UserPlayer, Map&lt;Integer, String&gt;&gt; determineWinners(Map&lt;Integer, Player&gt; players)&lt;/p&gt;" style="verticalAlign=top;align=left;overflow=fill;html=1;whiteSpace=wrap;hachureGap=4;fontFamily=Architects Daughter;fontSource=https%3A%2F%2Ffonts.googleapis.com%2Fcss%3Ffamily%3DArchitects%2BDaughter;shadow=0;" parent="21" vertex="1">
          <mxGeometry x="10" y="380" width="350" height="190" as="geometry" />
        </mxCell>
        <mxCell id="24" value="&lt;p style=&quot;margin:0px;margin-top:4px;text-align:center;&quot;&gt;&lt;b&gt;TableDrawer&lt;/b&gt;&lt;/p&gt;&lt;hr size=&quot;1&quot; style=&quot;border-style:solid;&quot;/&gt;&lt;p style=&quot;margin:0px;margin-left:4px;&quot;&gt;- final String filePath&lt;br/&gt;&#xa;- final int[] turnIndicator&lt;/p&gt;&lt;hr size=&quot;1&quot; style=&quot;border-style:solid;&quot;/&gt;&lt;p style=&quot;margin:0px;margin-left:4px;&quot;&gt;+ TableDrawer(int[] turnIndicator)&lt;br/&gt;&#xa;+ void drawTable()&lt;br/&gt;&#xa;- void printTable(Map&lt;Integer, Object&gt; data)&lt;/p&gt;" style="verticalAlign=top;align=left;overflow=fill;html=1;whiteSpace=wrap;hachureGap=4;fontFamily=Architects Daughter;fontSource=https%3A%2F%2Ffonts.googleapis.com%2Fcss%3Ffamily%3DArchitects%2BDaughter;shadow=0;" parent="21" vertex="1">
          <mxGeometry x="10" y="180" width="300" height="170" as="geometry" />
        </mxCell>
        <mxCell id="25" style="edgeStyle=orthogonalEdgeStyle;rounded=0;endArrow=none;html=1;" parent="1" source="22" target="5" edge="1" />
        <mxCell id="26" style="edgeStyle=orthogonalEdgeStyle;rounded=0;endArrow=none;html=1;" parent="1" source="22" target="14" edge="1" />
        <mxCell id="27" style="edgeStyle=orthogonalEdgeStyle;rounded=0;endArrow=none;html=1;" parent="1" source="22" target="19" edge="1" />
        <mxCell id="28" style="edgeStyle=orthogonalEdgeStyle;rounded=0;endArrow=none;html=1;" parent="1" source="22" target="39" edge="1" />
        <mxCell id="29" style="edgeStyle=orthogonalEdgeStyle;rounded=0;endArrow=none;html=1;" parent="1" source="22" target="38" edge="1" />
        <mxCell id="30" style="edgeStyle=orthogonalEdgeStyle;rounded=0;endArrow=none;html=1;" parent="1" source="22" target="40" edge="1" />
        <mxCell id="31" style="edgeStyle=orthogonalEdgeStyle;rounded=0;endArrow=none;html=1;" parent="1" source="23" target="14" edge="1" />
        <mxCell id="32" style="edgeStyle=orthogonalEdgeStyle;rounded=0;endArrow=none;html=1;" parent="1" source="23" target="18" edge="1" />
        <mxCell id="33" style="edgeStyle=orthogonalEdgeStyle;rounded=0;endArrow=none;html=1;" parent="1" source="23" target="39" edge="1" />
        <mxCell id="34" style="edgeStyle=orthogonalEdgeStyle;rounded=0;endArrow=none;html=1;" parent="1" source="23" target="38" edge="1" />
        <mxCell id="35" style="edgeStyle=orthogonalEdgeStyle;rounded=0;endArrow=none;html=1;" parent="1" source="23" target="40" edge="1" />
        <mxCell id="36" style="edgeStyle=orthogonalEdgeStyle;rounded=0;endArrow=none;html=1;" parent="1" source="24" target="14" edge="1" />
        <mxCell id="37" value="players" style="swimlane;whiteSpace=wrap;html=1;group=1;fillColor=#E8E8E8;strokeColor=#AAAAAA;shadow=0;" parent="1" vertex="1">
          <mxGeometry x="-1029250" y="-745880" width="890" height="960" as="geometry" />
        </mxCell>
        <mxCell id="38" value="&lt;p style=&quot;margin:0px;margin-top:4px;text-align:center;&quot;&gt;&lt;i&gt;&lt;&lt;Abstract Class&gt;&gt;&lt;/i&gt;&lt;br/&gt;&lt;b&gt;Player&lt;/b&gt;&lt;/p&gt;&lt;hr size=&quot;1&quot; style=&quot;border-style:solid;&quot;/&gt;&lt;p style=&quot;margin:0px;margin-left:4px;&quot;&gt;- final String name&lt;br/&gt;&#xa;- Integer chips&lt;br/&gt;&#xa;- LinkedHashMap&lt;Integer, Integer&gt; bets&lt;br/&gt;&#xa;- LinkedHashMap&lt;Integer, List&lt;String&gt;&gt; hands&lt;br/&gt;&#xa;- LinkedHashMap&lt;Integer, Integer&gt; countValues&lt;/p&gt;&lt;hr size=&quot;1&quot; style=&quot;border-style:solid;&quot;/&gt;&lt;p style=&quot;margin:0px;margin-left:4px;&quot;&gt;+ Player(String name, Integer chips, LinkedHashMap&lt;Integer, Integer&gt; bets, LinkedHashMap&lt;Integer, List&lt;String&gt;&gt; hands, LinkedHashMap&lt;Integer, Integer&gt; countValues)&lt;br/&gt;&#xa;+ String getName()&lt;br/&gt;&#xa;+ Integer getChips()&lt;br/&gt;&#xa;+ void setChips(Integer chips)&lt;br/&gt;&#xa;+ LinkedHashMap&lt;Integer, Integer&gt; getBets()&lt;br/&gt;&#xa;+ void setBets(LinkedHashMap&lt;Integer, Integer&gt; bets)&lt;br/&gt;&#xa;+ LinkedHashMap&lt;Integer, List&lt;String&gt;&gt; getHands()&lt;br/&gt;&#xa;+ LinkedHashMap&lt;Integer, Integer&gt; getCountValues()&lt;br/&gt;&#xa;+ String toString()&lt;/p&gt;&lt;hr size=&quot;1&quot; style=&quot;border-style:solid;&quot;/&gt;&lt;p style=&quot;margin:0px;margin-left:4px;&quot;&gt;+ void savePlayerToFile(String file, Player player)&lt;br/&gt;&#xa;+ void removePlayerFromYaml(String file, Integer playerId)&lt;br/&gt;&#xa;+ Integer countHandValue(List&lt;String&gt; hand)&lt;/p&gt;&lt;hr size=&quot;1&quot; style=&quot;border-style:solid;&quot;/&gt;&lt;p style=&quot;margin:0px;margin-left:4px;&quot;&gt;+ abstract List&lt;String&gt; dealInitialHand()&lt;br/&gt;&#xa;+ abstract void hit(int handIndex)&lt;br/&gt;&#xa;+ abstract void stand(int handIndex)&lt;br/&gt;&#xa;+ abstract void doubleDown(int handIndex) throws InsufficientChipsException&lt;br/&gt;&#xa;+ abstract void split(int handIndex)&lt;br/&gt;&#xa;+ abstract void updateYaml(String file, Integer playerId, String key, Object value)&lt;/p&gt;" style="verticalAlign=top;align=left;overflow=fill;html=1;whiteSpace=wrap;hachureGap=4;fontFamily=Architects Daughter;fontSource=https%3A%2F%2Ffonts.googleapis.com%2Fcss%3Ffamily%3DArchitects%2BDaughter;shadow=0;" parent="37" vertex="1">
          <mxGeometry x="10" y="60" width="400" height="740" as="geometry" />
        </mxCell>
        <mxCell id="39" value="&lt;p style=&quot;margin:0px;margin-top:4px;text-align:center;&quot;&gt;&lt;b&gt;Dealer&lt;/b&gt;&lt;/p&gt;&lt;hr size=&quot;1&quot; style=&quot;border-style:solid;&quot;/&gt;&lt;p style=&quot;margin:0px;margin-left:4px;&quot;&gt;- static final GameDataHandler gameDataHandler&lt;br/&gt;&#xa;- static Deck deck&lt;br/&gt;&#xa;- final int dealerId&lt;/p&gt;&lt;hr size=&quot;1&quot; style=&quot;border-style:solid;&quot;/&gt;&lt;p style=&quot;margin:0px;margin-left:4px;&quot;&gt;+ Dealer(Deck deck)&lt;br/&gt;&#xa;+ void dealerActions()&lt;br/&gt;&#xa;+ void hit(int handIndex)&lt;br/&gt;&#xa;+ void stand(int handIndex)&lt;br/&gt;&#xa;+ void doubleDown(int handIndex)&lt;br/&gt;&#xa;+ void split(int handIndex)&lt;/p&gt;" style="verticalAlign=top;align=left;overflow=fill;html=1;whiteSpace=wrap;hachureGap=4;fontFamily=Architects Daughter;fontSource=https%3A%2F%2Ffonts.googleapis.com%2Fcss%3Ffamily%3DArchitects%2BDaughter;shadow=0;" parent="37" vertex="1">
          <mxGeometry x="490" y="60" width="300" height="280" as="geometry" />
        </mxCell>
        <mxCell id="43" style="edgeStyle=orthogonalEdgeStyle;rounded=0;endArrow=none;html=1;" parent="37" source="38" target="40" edge="1" />
        <mxCell id="J_7VlXqUv86EhzjSv_5q-71" value="Extends" style="endArrow=block;endSize=16;endFill=0;html=1;rounded=0;hachureGap=4;fontFamily=Architects Daughter;fontSource=https%3A%2F%2Ffonts.googleapis.com%2Fcss%3Ffamily%3DArchitects%2BDaughter;exitX=0.012;exitY=0.06;exitDx=0;exitDy=0;shadow=0;entryX=0.996;entryY=0.17;entryDx=0;entryDy=0;entryPerimeter=0;exitPerimeter=0;" parent="37" source="39" target="38" edge="1">
          <mxGeometry width="160" relative="1" as="geometry">
            <mxPoint x="565" y="445" as="sourcePoint" />
            <mxPoint x="412" y="267" as="targetPoint" />
          </mxGeometry>
        </mxCell>
        <mxCell id="41" value="&lt;p style=&quot;margin:0px;margin-top:4px;text-align:center;&quot;&gt;&lt;i&gt;&lt;&lt;Interface&gt;&gt;&lt;/i&gt;&lt;br/&gt;&lt;b&gt;PlayerActions&lt;/b&gt;&lt;/p&gt;&lt;hr size=&quot;1&quot; style=&quot;border-style:solid;&quot;/&gt;&lt;p style=&quot;margin:0px;margin-left:4px;&quot;&gt;+ void hit(int handIndex)&lt;br/&gt;&#xa;+ void stand(int handIndex)&lt;br/&gt;&#xa;+ void doubleDown(int handIndex) throws InsufficientChipsException&lt;br/&gt;&#xa;+ void split(int handIndex)&lt;/p&gt;" style="verticalAlign=top;align=left;overflow=fill;html=1;whiteSpace=wrap;hachureGap=4;fontFamily=Architects Daughter;fontSource=https%3A%2F%2Ffonts.googleapis.com%2Fcss%3Ffamily%3DArchitects%2BDaughter;shadow=0;" parent="37" vertex="1">
          <mxGeometry x="490" y="770" width="300" height="170" as="geometry" />
        </mxCell>
        <mxCell id="44" style="edgeStyle=orthogonalEdgeStyle;rounded=0;endArrow=none;html=1;" parent="37" source="39" target="41" edge="1" />
        <mxCell id="45" style="edgeStyle=orthogonalEdgeStyle;rounded=0;endArrow=none;html=1;" parent="37" source="40" target="41" edge="1" />
        <mxCell id="J_7VlXqUv86EhzjSv_5q-70" value="Extends" style="endArrow=block;endSize=16;endFill=0;html=1;rounded=0;hachureGap=4;fontFamily=Architects Daughter;fontSource=https%3A%2F%2Ffonts.googleapis.com%2Fcss%3Ffamily%3DArchitects%2BDaughter;exitX=0.019;exitY=0.036;exitDx=0;exitDy=0;entryX=0.986;entryY=0.432;entryDx=0;entryDy=0;shadow=0;exitPerimeter=0;entryPerimeter=0;" parent="37" source="40" target="38" edge="1">
          <mxGeometry width="160" relative="1" as="geometry">
            <mxPoint x="160" y="490" as="sourcePoint" />
            <mxPoint x="320" y="490" as="targetPoint" />
          </mxGeometry>
        </mxCell>
        <mxCell id="40" value="&lt;p style=&quot;margin:0px;margin-top:4px;text-align:center;&quot;&gt;&lt;b&gt;UserPlayer&lt;/b&gt;&lt;/p&gt;&lt;hr size=&quot;1&quot; style=&quot;border-style:solid;&quot;/&gt;&lt;p style=&quot;margin:0px;margin-left:4px;&quot;&gt;- static final GameDataHandler gameDataHandler&lt;br/&gt;&#xa;- static final Map&lt;String, Object&gt; settings&lt;br/&gt;&#xa;- static Deck deck&lt;br/&gt;&#xa;- final int playerId&lt;/p&gt;&lt;hr size=&quot;1&quot; style=&quot;border-style:solid;&quot;/&gt;&lt;p style=&quot;margin:0px;margin-left:4px;&quot;&gt;+ UserPlayer(String name, Deck deck)&lt;br/&gt;&#xa;+ int getPlayerId()&lt;br/&gt;&#xa;+ List&lt;String&gt; getPossibleActions(int handIndex)&lt;br/&gt;&#xa;+ void hit(int handIndex)&lt;br/&gt;&#xa;+ void stand(int handIndex)&lt;br/&gt;&#xa;+ void doubleDown(int handIndex) throws InsufficientChipsException&lt;br/&gt;&#xa;+ void split(int handIndex)&lt;/p&gt;" style="verticalAlign=top;align=left;overflow=fill;html=1;whiteSpace=wrap;hachureGap=4;fontFamily=Architects Daughter;fontSource=https%3A%2F%2Ffonts.googleapis.com%2Fcss%3Ffamily%3DArchitects%2BDaughter;shadow=0;" parent="37" vertex="1">
          <mxGeometry x="490" y="370" width="350" height="360" as="geometry" />
        </mxCell>
        <mxCell id="42" style="edgeStyle=orthogonalEdgeStyle;rounded=0;endArrow=none;html=1;" parent="1" source="38" target="39" edge="1" />
        <mxCell id="46" style="edgeStyle=orthogonalEdgeStyle;rounded=0;endArrow=block;html=1;shadow=0;" parent="1" source="2" target="22" edge="1">
          <mxGeometry relative="1" as="geometry" />
        </mxCell>
        <mxCell id="J_7VlXqUv86EhzjSv_5q-55" style="edgeStyle=orthogonalEdgeStyle;rounded=0;hachureGap=4;orthogonalLoop=1;jettySize=auto;html=1;exitX=0;exitY=0.5;exitDx=0;exitDy=0;entryX=0.75;entryY=1;entryDx=0;entryDy=0;fontFamily=Architects Daughter;fontSource=https%3A%2F%2Ffonts.googleapis.com%2Fcss%3Ffamily%3DArchitects%2BDaughter;endArrow=none;endFill=0;shadow=0;" parent="1" source="23" target="18" edge="1">
          <mxGeometry relative="1" as="geometry" />
        </mxCell>
        <mxCell id="J_7VlXqUv86EhzjSv_5q-58" style="edgeStyle=orthogonalEdgeStyle;rounded=0;hachureGap=4;orthogonalLoop=1;jettySize=auto;html=1;exitX=0;exitY=0.5;exitDx=0;exitDy=0;entryX=0.944;entryY=0.036;entryDx=0;entryDy=0;entryPerimeter=0;fontFamily=Architects Daughter;fontSource=https%3A%2F%2Ffonts.googleapis.com%2Fcss%3Ffamily%3DArchitects%2BDaughter;endArrow=none;endFill=0;shadow=0;" parent="1" source="22" target="19" edge="1">
          <mxGeometry relative="1" as="geometry" />
        </mxCell>
        <mxCell id="J_7VlXqUv86EhzjSv_5q-59" style="edgeStyle=orthogonalEdgeStyle;rounded=0;hachureGap=4;orthogonalLoop=1;jettySize=auto;html=1;exitX=0.5;exitY=0;exitDx=0;exitDy=0;entryX=1;entryY=0.5;entryDx=0;entryDy=0;fontFamily=Architects Daughter;fontSource=https%3A%2F%2Ffonts.googleapis.com%2Fcss%3Ffamily%3DArchitects%2BDaughter;endArrow=none;endFill=0;shadow=0;" parent="1" source="5" target="22" edge="1">
          <mxGeometry relative="1" as="geometry">
            <Array as="points">
              <mxPoint x="-1029090" y="-745040" />
              <mxPoint x="-1029290" y="-745040" />
              <mxPoint x="-1029290" y="-745770" />
            </Array>
          </mxGeometry>
        </mxCell>
        <mxCell id="J_7VlXqUv86EhzjSv_5q-62" style="edgeStyle=orthogonalEdgeStyle;rounded=0;hachureGap=4;orthogonalLoop=1;jettySize=auto;html=1;exitX=0.997;exitY=0.342;exitDx=0;exitDy=0;fontFamily=Architects Daughter;fontSource=https%3A%2F%2Ffonts.googleapis.com%2Fcss%3Ffamily%3DArchitects%2BDaughter;endArrow=none;endFill=0;shadow=0;exitPerimeter=0;" parent="1" source="13" target="4" edge="1">
          <mxGeometry relative="1" as="geometry">
            <Array as="points">
              <mxPoint x="-1029610" y="-745155" />
              <mxPoint x="-1029610" y="-744530" />
              <mxPoint x="-1028920" y="-744530" />
              <mxPoint x="-1028920" y="-744650" />
            </Array>
          </mxGeometry>
        </mxCell>
        <mxCell id="J_7VlXqUv86EhzjSv_5q-63" style="edgeStyle=orthogonalEdgeStyle;rounded=0;hachureGap=4;orthogonalLoop=1;jettySize=auto;html=1;exitX=1;exitY=0.25;exitDx=0;exitDy=0;fontFamily=Architects Daughter;fontSource=https%3A%2F%2Ffonts.googleapis.com%2Fcss%3Ffamily%3DArchitects%2BDaughter;endArrow=none;endFill=0;shadow=0;" parent="1" source="13" target="5" edge="1">
          <mxGeometry relative="1" as="geometry">
            <Array as="points">
              <mxPoint x="-1029600" y="-745170" />
              <mxPoint x="-1029600" y="-744595" />
            </Array>
          </mxGeometry>
        </mxCell>
        <mxCell id="J_7VlXqUv86EhzjSv_5q-64" style="edgeStyle=orthogonalEdgeStyle;rounded=0;hachureGap=4;orthogonalLoop=1;jettySize=auto;html=1;exitX=1;exitY=0.5;exitDx=0;exitDy=0;fontFamily=Architects Daughter;fontSource=https%3A%2F%2Ffonts.googleapis.com%2Fcss%3Ffamily%3DArchitects%2BDaughter;endArrow=none;endFill=0;shadow=0;" parent="1" source="14" target="24" edge="1">
          <mxGeometry relative="1" as="geometry">
            <Array as="points">
              <mxPoint x="-1029690" y="-744820" />
              <mxPoint x="-1029690" y="-745615" />
            </Array>
          </mxGeometry>
        </mxCell>
        <mxCell id="J_7VlXqUv86EhzjSv_5q-65" style="edgeStyle=orthogonalEdgeStyle;rounded=0;hachureGap=4;orthogonalLoop=1;jettySize=auto;html=1;exitX=0.5;exitY=0;exitDx=0;exitDy=0;fontFamily=Architects Daughter;fontSource=https%3A%2F%2Ffonts.googleapis.com%2Fcss%3Ffamily%3DArchitects%2BDaughter;endArrow=none;endFill=0;shadow=0;entryX=0;entryY=0.75;entryDx=0;entryDy=0;" parent="1" source="13" target="22" edge="1">
          <mxGeometry relative="1" as="geometry">
            <mxPoint x="-1029680" y="-745730" as="targetPoint" />
            <Array as="points">
              <mxPoint x="-1029860" y="-745460" />
              <mxPoint x="-1029750" y="-745460" />
              <mxPoint x="-1029750" y="-745727" />
              <mxPoint x="-1029670" y="-745727" />
            </Array>
          </mxGeometry>
        </mxCell>
        <mxCell id="J_7VlXqUv86EhzjSv_5q-66" style="edgeStyle=orthogonalEdgeStyle;rounded=0;hachureGap=4;orthogonalLoop=1;jettySize=auto;html=1;fontFamily=Architects Daughter;fontSource=https%3A%2F%2Ffonts.googleapis.com%2Fcss%3Ffamily%3DArchitects%2BDaughter;endArrow=none;endFill=0;shadow=0;" parent="1" source="19" target="13" edge="1">
          <mxGeometry relative="1" as="geometry">
            <Array as="points">
              <mxPoint x="-1029920" y="-745300" />
              <mxPoint x="-1029920" y="-745300" />
            </Array>
          </mxGeometry>
        </mxCell>
        <mxCell id="J_7VlXqUv86EhzjSv_5q-76" style="edgeStyle=orthogonalEdgeStyle;rounded=0;hachureGap=4;orthogonalLoop=1;jettySize=auto;html=1;exitX=1;exitY=0.25;exitDx=0;exitDy=0;fontFamily=Architects Daughter;fontSource=https%3A%2F%2Ffonts.googleapis.com%2Fcss%3Ffamily%3DArchitects%2BDaughter;endArrow=none;endFill=0;shadow=0;entryX=0.002;entryY=0.986;entryDx=0;entryDy=0;entryPerimeter=0;" parent="1" source="14" target="38" edge="1">
          <mxGeometry relative="1" as="geometry">
            <mxPoint x="-1029246" y="-745090" as="targetPoint" />
            <Array as="points">
              <mxPoint x="-1029475" y="-744890" />
              <mxPoint x="-1029475" y="-745090" />
            </Array>
          </mxGeometry>
        </mxCell>
        <mxCell id="J_7VlXqUv86EhzjSv_5q-77" style="edgeStyle=orthogonalEdgeStyle;rounded=0;hachureGap=4;orthogonalLoop=1;jettySize=auto;html=1;exitX=1;exitY=0.25;exitDx=0;exitDy=0;entryX=-0.002;entryY=0.035;entryDx=0;entryDy=0;entryPerimeter=0;fontFamily=Architects Daughter;fontSource=https%3A%2F%2Ffonts.googleapis.com%2Fcss%3Ffamily%3DArchitects%2BDaughter;endArrow=none;endFill=0;shadow=0;" parent="1" source="22" target="38" edge="1">
          <mxGeometry relative="1" as="geometry" />
        </mxCell>
        <mxCell id="J_7VlXqUv86EhzjSv_5q-78" style="edgeStyle=orthogonalEdgeStyle;rounded=0;hachureGap=4;orthogonalLoop=1;jettySize=auto;html=1;entryX=0;entryY=0.561;entryDx=0;entryDy=0;entryPerimeter=0;fontFamily=Architects Daughter;fontSource=https%3A%2F%2Ffonts.googleapis.com%2Fcss%3Ffamily%3DArchitects%2BDaughter;endArrow=none;endFill=0;shadow=0;" parent="1" source="23" target="38" edge="1">
          <mxGeometry relative="1" as="geometry" />
        </mxCell>
        <mxCell id="J_7VlXqUv86EhzjSv_5q-80" style="edgeStyle=orthogonalEdgeStyle;rounded=0;hachureGap=4;orthogonalLoop=1;jettySize=auto;html=1;fontFamily=Architects Daughter;fontSource=https%3A%2F%2Ffonts.googleapis.com%2Fcss%3Ffamily%3DArchitects%2BDaughter;endArrow=none;endFill=0;shadow=0;" parent="1" source="40" target="22" edge="1">
          <mxGeometry relative="1" as="geometry">
            <Array as="points">
              <mxPoint x="-1028780" y="-745330" />
              <mxPoint x="-1028780" y="-745030" />
              <mxPoint x="-1029300" y="-745030" />
              <mxPoint x="-1029300" y="-745760" />
            </Array>
          </mxGeometry>
        </mxCell>
        <mxCell id="hOFVRN5MPvwN64yr18WN-46" value="" style="rounded=0;orthogonalLoop=1;jettySize=auto;html=1;endArrow=halfCircle;endFill=0;endSize=6;strokeWidth=1;hachureGap=4;fontFamily=Architects Daughter;fontSource=https%3A%2F%2Ffonts.googleapis.com%2Fcss%3Ffamily%3DArchitects%2BDaughter;exitX=1.004;exitY=0.556;exitDx=0;exitDy=0;exitPerimeter=0;shadow=0;" edge="1" parent="1" source="40">
          <mxGeometry relative="1" as="geometry">
            <mxPoint x="-1028520" y="-745135" as="sourcePoint" />
            <mxPoint x="-1028390" y="-745160" as="targetPoint" />
          </mxGeometry>
        </mxCell>
        <mxCell id="hOFVRN5MPvwN64yr18WN-47" value="" style="rounded=0;orthogonalLoop=1;jettySize=auto;html=1;endArrow=oval;endFill=0;sourcePerimeterSpacing=0;targetPerimeterSpacing=0;endSize=10;hachureGap=4;fontFamily=Architects Daughter;fontSource=https%3A%2F%2Ffonts.googleapis.com%2Fcss%3Ffamily%3DArchitects%2BDaughter;exitX=1.01;exitY=0.102;exitDx=0;exitDy=0;exitPerimeter=0;shadow=0;" edge="1" parent="1" source="41">
          <mxGeometry relative="1" as="geometry">
            <mxPoint x="-1028560" y="-745135" as="sourcePoint" />
            <mxPoint x="-1028390" y="-745160" as="targetPoint" />
          </mxGeometry>
        </mxCell>
        <mxCell id="hOFVRN5MPvwN64yr18WN-48" value="" style="ellipse;whiteSpace=wrap;html=1;align=center;aspect=fixed;fillColor=none;strokeColor=none;resizable=0;perimeter=centerPerimeter;rotatable=0;allowArrows=0;points=[];outlineConnect=1;hachureGap=4;fontFamily=Architects Daughter;fontSource=https%3A%2F%2Ffonts.googleapis.com%2Fcss%3Ffamily%3DArchitects%2BDaughter;shadow=0;" vertex="1" parent="1">
          <mxGeometry x="-1028545" y="-745140" width="10" height="10" as="geometry" />
        </mxCell>
        <mxCell id="hOFVRN5MPvwN64yr18WN-49" value="" style="rounded=0;orthogonalLoop=1;jettySize=auto;html=1;endArrow=halfCircle;endFill=0;endSize=6;strokeWidth=1;hachureGap=4;fontFamily=Architects Daughter;fontSource=https%3A%2F%2Ffonts.googleapis.com%2Fcss%3Ffamily%3DArchitects%2BDaughter;exitX=0.998;exitY=0.158;exitDx=0;exitDy=0;shadow=0;exitPerimeter=0;" edge="1" parent="1" source="41">
          <mxGeometry relative="1" as="geometry">
            <mxPoint x="-1028520" y="-745135" as="sourcePoint" />
            <mxPoint x="-1028370" y="-745150" as="targetPoint" />
          </mxGeometry>
        </mxCell>
        <mxCell id="hOFVRN5MPvwN64yr18WN-50" value="" style="rounded=0;orthogonalLoop=1;jettySize=auto;html=1;endArrow=oval;endFill=0;sourcePerimeterSpacing=0;targetPerimeterSpacing=0;endSize=10;hachureGap=4;fontFamily=Architects Daughter;fontSource=https%3A%2F%2Ffonts.googleapis.com%2Fcss%3Ffamily%3DArchitects%2BDaughter;shadow=0;" edge="1" parent="1">
          <mxGeometry relative="1" as="geometry">
            <mxPoint x="-1028459" y="-745660" as="sourcePoint" />
            <mxPoint x="-1028370" y="-745150" as="targetPoint" />
            <Array as="points">
              <mxPoint x="-1028390" y="-745510" />
            </Array>
          </mxGeometry>
        </mxCell>
        <mxCell id="hOFVRN5MPvwN64yr18WN-51" value="" style="ellipse;whiteSpace=wrap;html=1;align=center;aspect=fixed;fillColor=none;strokeColor=none;resizable=0;perimeter=centerPerimeter;rotatable=0;allowArrows=0;points=[];outlineConnect=1;hachureGap=4;fontFamily=Architects Daughter;fontSource=https%3A%2F%2Ffonts.googleapis.com%2Fcss%3Ffamily%3DArchitects%2BDaughter;shadow=0;" vertex="1" parent="1">
          <mxGeometry x="-1028545" y="-745140" width="10" height="10" as="geometry" />
        </mxCell>
        <mxCell id="hOFVRN5MPvwN64yr18WN-53" value="" style="edgeStyle=orthogonalEdgeStyle;rounded=0;hachureGap=4;orthogonalLoop=1;jettySize=auto;html=1;exitX=0.631;exitY=1.005;exitDx=0;exitDy=0;fontFamily=Architects Daughter;fontSource=https%3A%2F%2Ffonts.googleapis.com%2Fcss%3Ffamily%3DArchitects%2BDaughter;endArrow=none;endFill=0;shadow=0;entryX=0;entryY=0.5;entryDx=0;entryDy=0;exitPerimeter=0;" edge="1" parent="1" source="23" target="41">
          <mxGeometry relative="1" as="geometry">
            <mxPoint x="-1029320" y="-745452" as="sourcePoint" />
            <mxPoint x="-1028650" y="-745540" as="targetPoint" />
            <Array as="points">
              <mxPoint x="-1029449" y="-745025" />
            </Array>
          </mxGeometry>
        </mxCell>
      </root>
    </mxGraphModel>
  </diagram>
</mxfile>
